<svg id="Capa_1" data-name="Capa 1" xmlns="http://www.w3.org/2000/svg" viewBox="0 0 259.6 78.33"><path d="M46.57 38.08a22.48 22.48 0 0 1-6.85 16.48 22.23 22.23 0 0 1-16.48 6.8 22.33 22.33 0 0 1-16.43-6.84A22.36 22.36 0 0 1 0 38.08 22.8 22.8 0 0 1 6.8 21.6a22.33 22.33 0 0 1 16.44-6.85 22.63 22.63 0 0 1 16.5 6.85 22.66 22.66 0 0 1 6.86 16.48zm-8.47 0a14.31 14.31 0 0 0-4.36-10.5 14.31 14.31 0 0 0-10.5-4.36 14.06 14.06 0 0 0-10.46 4.4 14.45 14.45 0 0 0-4.32 10.5 14.12 14.12 0 0 0 4.3 10.46 14.23 14.23 0 0 0 10.5 4.3 14.38 14.38 0 0 0 10.5-4.31 14.34 14.34 0 0 0 4.34-10.46zm54.55 16.97a22.53 22.53 0 0 1-6.81 16.48 22.22 22.22 0 0 1-16.52 6.8 22.64 22.64 0 0 1-10.54-2.57V65.3a14 14 0 0 0 10.5 4.57 14.26 14.26 0 0 0 10.29-4.19 14.46 14.46 0 0 0 4.57-10.09 16 16 0 0 1-12.7 5.81 20.35 20.35 0 0 1-15-6.22 20.54 20.54 0 0 1-6.18-15V17h8.47v23.19a12.63 12.63 0 0 0 12.7 12.66 12.75 12.75 0 0 0 12.7-12.7V17h8.47v38.1zm41.92-31.83a14.88 14.88 0 0 0-14.86 14.86 22.55 22.55 0 0 1-6.81 16.48 22.33 22.33 0 0 1-16.44 6.85v-8.55a14.74 14.74 0 0 0 14.78-14.78 22.47 22.47 0 0 1 6.85-16.48 22.47 22.47 0 0 1 16.48-6.85v8.48zm37.61 35.63a22.69 22.69 0 0 1-10.54 2.57 22.43 22.43 0 0 1-16.52-6.85 22.43 22.43 0 0 1-6.81-16.39V0h8.47v16.94h14.86v8.47h-14.86v12.78a14 14 0 0 0 4.4 10.4 14.84 14.84 0 0 0 21-.21v10.47zM222 38.11h-31.22v-8.47h20.09a14.8 14.8 0 0 0-27 8.47 14.71 14.71 0 0 0 14.8 14.81 14.66 14.66 0 0 0 10.63-4.4v10.37a23.29 23.29 0 0 1-10.63 2.6 22.39 22.39 0 0 1-16.44-6.81 22.5 22.5 0 0 1-6.81-16.53 22.54 22.54 0 0 1 6.81-16.48 22.33 22.33 0 0 1 16.44-6.85A23.34 23.34 0 0 1 222 38.11zm37.6-10.38a14.69 14.69 0 0 0-21-.08 14.38 14.38 0 0 0-4.36 10.5v21.17h-8.47V38.09a22.52 22.52 0 0 1 6.81-16.53 22.49 22.49 0 0 1 16.52-6.81 22.22 22.22 0 0 1 10.5 2.58v10.4z" fill="#fff"/></svg>